<mxfile host="app.diagrams.net" modified="2022-11-22T03:58:52.337Z" agent="5.0 (Windows NT 10.0; Win64; x64) AppleWebKit/537.36 (KHTML, like Gecko) Chrome/107.0.0.0 Safari/537.36 Edg/107.0.1418.52" etag="CWMs4_qKi9NuF9f3W5Yb" version="20.5.3" type="github">
  <diagram id="R2lEEEUBdFMjLlhIrx00" name="Page-1">
    <mxGraphModel dx="1153" dy="608" grid="1" gridSize="10" guides="1" tooltips="1" connect="1" arrows="1" fold="1" page="1" pageScale="1" pageWidth="850" pageHeight="1100" math="0" shadow="0" extFonts="Permanent Marker^https://fonts.googleapis.com/css?family=Permanent+Marker">
      <root>
        <mxCell id="0" />
        <mxCell id="1" parent="0" />
        <mxCell id="Oh5_6WnXFUStwRA0bN0o-21" style="edgeStyle=none;shape=connector;rounded=0;orthogonalLoop=1;jettySize=auto;html=1;entryX=0.5;entryY=0;entryDx=0;entryDy=0;labelBackgroundColor=default;strokeColor=default;fontFamily=Helvetica;fontSize=11;fontColor=default;endArrow=none;endFill=0;" parent="1" source="Oh5_6WnXFUStwRA0bN0o-2" target="Oh5_6WnXFUStwRA0bN0o-7" edge="1">
          <mxGeometry relative="1" as="geometry" />
        </mxCell>
        <mxCell id="Oh5_6WnXFUStwRA0bN0o-2" value="id" style="ellipse;whiteSpace=wrap;html=1;" parent="1" vertex="1">
          <mxGeometry x="40" y="80" width="120" height="80" as="geometry" />
        </mxCell>
        <mxCell id="Oh5_6WnXFUStwRA0bN0o-22" style="edgeStyle=none;shape=connector;rounded=0;orthogonalLoop=1;jettySize=auto;html=1;entryX=0.5;entryY=0;entryDx=0;entryDy=0;labelBackgroundColor=default;strokeColor=default;fontFamily=Helvetica;fontSize=11;fontColor=default;endArrow=none;endFill=0;" parent="1" source="Oh5_6WnXFUStwRA0bN0o-3" target="Oh5_6WnXFUStwRA0bN0o-7" edge="1">
          <mxGeometry relative="1" as="geometry" />
        </mxCell>
        <mxCell id="Oh5_6WnXFUStwRA0bN0o-3" value="用户id" style="ellipse;whiteSpace=wrap;html=1;" parent="1" vertex="1">
          <mxGeometry x="190" y="80" width="120" height="80" as="geometry" />
        </mxCell>
        <mxCell id="Oh5_6WnXFUStwRA0bN0o-23" style="edgeStyle=none;shape=connector;rounded=0;orthogonalLoop=1;jettySize=auto;html=1;entryX=0.5;entryY=0;entryDx=0;entryDy=0;labelBackgroundColor=default;strokeColor=default;fontFamily=Helvetica;fontSize=11;fontColor=default;endArrow=none;endFill=0;" parent="1" source="Oh5_6WnXFUStwRA0bN0o-6" target="Oh5_6WnXFUStwRA0bN0o-7" edge="1">
          <mxGeometry relative="1" as="geometry" />
        </mxCell>
        <mxCell id="Oh5_6WnXFUStwRA0bN0o-6" value="用户名" style="ellipse;whiteSpace=wrap;html=1;" parent="1" vertex="1">
          <mxGeometry x="330" y="80" width="120" height="80" as="geometry" />
        </mxCell>
        <mxCell id="0hVIUddKuyC8SR1e_FE4-2" style="rounded=0;orthogonalLoop=1;jettySize=auto;html=1;entryX=0.5;entryY=0;entryDx=0;entryDy=0;endArrow=none;endFill=0;" edge="1" parent="1" source="Oh5_6WnXFUStwRA0bN0o-7" target="0hVIUddKuyC8SR1e_FE4-1">
          <mxGeometry relative="1" as="geometry" />
        </mxCell>
        <mxCell id="0hVIUddKuyC8SR1e_FE4-8" style="edgeStyle=none;shape=connector;rounded=0;orthogonalLoop=1;jettySize=auto;html=1;entryX=0.563;entryY=0.086;entryDx=0;entryDy=0;entryPerimeter=0;labelBackgroundColor=default;strokeColor=default;fontFamily=Helvetica;fontSize=15;fontColor=default;endArrow=none;endFill=0;" edge="1" parent="1" source="Oh5_6WnXFUStwRA0bN0o-7" target="0hVIUddKuyC8SR1e_FE4-7">
          <mxGeometry relative="1" as="geometry" />
        </mxCell>
        <mxCell id="Oh5_6WnXFUStwRA0bN0o-7" value="用户User" style="rounded=1;whiteSpace=wrap;html=1;" parent="1" vertex="1">
          <mxGeometry x="400" y="250" width="120" height="60" as="geometry" />
        </mxCell>
        <mxCell id="Oh5_6WnXFUStwRA0bN0o-24" style="edgeStyle=none;shape=connector;rounded=0;orthogonalLoop=1;jettySize=auto;html=1;entryX=0.5;entryY=0;entryDx=0;entryDy=0;labelBackgroundColor=default;strokeColor=default;fontFamily=Helvetica;fontSize=11;fontColor=default;endArrow=none;endFill=0;" parent="1" source="Oh5_6WnXFUStwRA0bN0o-12" target="Oh5_6WnXFUStwRA0bN0o-7" edge="1">
          <mxGeometry relative="1" as="geometry" />
        </mxCell>
        <mxCell id="Oh5_6WnXFUStwRA0bN0o-12" value="用户名" style="ellipse;whiteSpace=wrap;html=1;" parent="1" vertex="1">
          <mxGeometry x="480" y="80" width="120" height="80" as="geometry" />
        </mxCell>
        <mxCell id="Oh5_6WnXFUStwRA0bN0o-26" style="edgeStyle=none;shape=connector;rounded=0;orthogonalLoop=1;jettySize=auto;html=1;labelBackgroundColor=default;strokeColor=default;fontFamily=Helvetica;fontSize=11;fontColor=default;endArrow=none;endFill=0;" parent="1" source="Oh5_6WnXFUStwRA0bN0o-14" edge="1">
          <mxGeometry relative="1" as="geometry">
            <mxPoint x="460" y="250" as="targetPoint" />
          </mxGeometry>
        </mxCell>
        <mxCell id="Oh5_6WnXFUStwRA0bN0o-14" value="创建时间" style="ellipse;whiteSpace=wrap;html=1;" parent="1" vertex="1">
          <mxGeometry x="640" y="80" width="120" height="80" as="geometry" />
        </mxCell>
        <mxCell id="Oh5_6WnXFUStwRA0bN0o-28" style="edgeStyle=none;shape=connector;rounded=0;orthogonalLoop=1;jettySize=auto;html=1;labelBackgroundColor=default;strokeColor=default;fontFamily=Helvetica;fontSize=11;fontColor=default;endArrow=none;endFill=0;entryX=0.5;entryY=0;entryDx=0;entryDy=0;" parent="1" source="Oh5_6WnXFUStwRA0bN0o-17" target="Oh5_6WnXFUStwRA0bN0o-7" edge="1">
          <mxGeometry relative="1" as="geometry">
            <mxPoint x="738.8186468917024" y="199.49963458509092" as="targetPoint" />
          </mxGeometry>
        </mxCell>
        <mxCell id="Oh5_6WnXFUStwRA0bN0o-17" value="更新时间" style="ellipse;whiteSpace=wrap;html=1;" parent="1" vertex="1">
          <mxGeometry x="780" y="80" width="120" height="80" as="geometry" />
        </mxCell>
        <mxCell id="0hVIUddKuyC8SR1e_FE4-4" style="edgeStyle=none;shape=connector;rounded=0;orthogonalLoop=1;jettySize=auto;html=1;exitX=0.5;exitY=1;exitDx=0;exitDy=0;entryX=0.5;entryY=0;entryDx=0;entryDy=0;labelBackgroundColor=default;strokeColor=default;fontFamily=Helvetica;fontSize=11;fontColor=default;endArrow=none;endFill=0;" edge="1" parent="1" source="0hVIUddKuyC8SR1e_FE4-1" target="0hVIUddKuyC8SR1e_FE4-3">
          <mxGeometry relative="1" as="geometry" />
        </mxCell>
        <mxCell id="0hVIUddKuyC8SR1e_FE4-1" value="发布" style="rhombus;whiteSpace=wrap;html=1;" vertex="1" parent="1">
          <mxGeometry x="190" y="380" width="160" height="80" as="geometry" />
        </mxCell>
        <mxCell id="0hVIUddKuyC8SR1e_FE4-3" value="帖子Post" style="rounded=0;whiteSpace=wrap;html=1;fontFamily=Helvetica;fontSize=11;fontColor=default;" vertex="1" parent="1">
          <mxGeometry x="210" y="530" width="120" height="60" as="geometry" />
        </mxCell>
        <mxCell id="0hVIUddKuyC8SR1e_FE4-5" value="1" style="text;strokeColor=none;fillColor=none;html=1;fontSize=15;fontStyle=1;verticalAlign=middle;align=center;fontFamily=Helvetica;fontColor=default;" vertex="1" parent="1">
          <mxGeometry x="260" y="320" width="100" height="40" as="geometry" />
        </mxCell>
        <mxCell id="0hVIUddKuyC8SR1e_FE4-6" value="n" style="text;strokeColor=none;fillColor=none;html=1;fontSize=15;fontStyle=1;verticalAlign=middle;align=center;fontFamily=Helvetica;fontColor=default;" vertex="1" parent="1">
          <mxGeometry x="240" y="460" width="100" height="50" as="geometry" />
        </mxCell>
        <mxCell id="0hVIUddKuyC8SR1e_FE4-7" value="发表" style="rhombus;whiteSpace=wrap;html=1;" vertex="1" parent="1">
          <mxGeometry x="580" y="380" width="160" height="80" as="geometry" />
        </mxCell>
        <mxCell id="0hVIUddKuyC8SR1e_FE4-10" style="edgeStyle=none;shape=connector;rounded=0;orthogonalLoop=1;jettySize=auto;html=1;entryX=0.5;entryY=1;entryDx=0;entryDy=0;labelBackgroundColor=default;strokeColor=default;fontFamily=Helvetica;fontSize=15;fontColor=default;endArrow=none;endFill=0;" edge="1" parent="1" source="0hVIUddKuyC8SR1e_FE4-9" target="0hVIUddKuyC8SR1e_FE4-7">
          <mxGeometry relative="1" as="geometry" />
        </mxCell>
        <mxCell id="0hVIUddKuyC8SR1e_FE4-9" value="评论Comment" style="rounded=0;whiteSpace=wrap;html=1;fontFamily=Helvetica;fontSize=11;fontColor=default;" vertex="1" parent="1">
          <mxGeometry x="600" y="530" width="120" height="60" as="geometry" />
        </mxCell>
        <mxCell id="0hVIUddKuyC8SR1e_FE4-11" value="1" style="text;strokeColor=none;fillColor=none;html=1;fontSize=15;fontStyle=1;verticalAlign=middle;align=center;fontFamily=Helvetica;fontColor=default;" vertex="1" parent="1">
          <mxGeometry x="580" y="320" width="100" height="40" as="geometry" />
        </mxCell>
        <mxCell id="0hVIUddKuyC8SR1e_FE4-12" value="n" style="text;strokeColor=none;fillColor=none;html=1;fontSize=15;fontStyle=1;verticalAlign=middle;align=center;fontFamily=Helvetica;fontColor=default;" vertex="1" parent="1">
          <mxGeometry x="630" y="470" width="100" height="50" as="geometry" />
        </mxCell>
        <mxCell id="0hVIUddKuyC8SR1e_FE4-14" style="edgeStyle=none;shape=connector;rounded=0;orthogonalLoop=1;jettySize=auto;html=1;entryX=1;entryY=0.5;entryDx=0;entryDy=0;labelBackgroundColor=default;strokeColor=default;fontFamily=Helvetica;fontSize=15;fontColor=default;endArrow=none;endFill=0;" edge="1" parent="1" source="0hVIUddKuyC8SR1e_FE4-13" target="0hVIUddKuyC8SR1e_FE4-3">
          <mxGeometry relative="1" as="geometry" />
        </mxCell>
        <mxCell id="0hVIUddKuyC8SR1e_FE4-15" style="edgeStyle=none;shape=connector;rounded=0;orthogonalLoop=1;jettySize=auto;html=1;entryX=0;entryY=0.5;entryDx=0;entryDy=0;labelBackgroundColor=default;strokeColor=default;fontFamily=Helvetica;fontSize=15;fontColor=default;endArrow=none;endFill=0;" edge="1" parent="1" source="0hVIUddKuyC8SR1e_FE4-13" target="0hVIUddKuyC8SR1e_FE4-9">
          <mxGeometry relative="1" as="geometry" />
        </mxCell>
        <mxCell id="0hVIUddKuyC8SR1e_FE4-13" value="拥有" style="rhombus;whiteSpace=wrap;html=1;" vertex="1" parent="1">
          <mxGeometry x="390" y="520" width="160" height="80" as="geometry" />
        </mxCell>
        <mxCell id="0hVIUddKuyC8SR1e_FE4-16" value="1" style="text;strokeColor=none;fillColor=none;html=1;fontSize=15;fontStyle=1;verticalAlign=middle;align=center;fontFamily=Helvetica;fontColor=default;" vertex="1" parent="1">
          <mxGeometry x="310" y="530" width="100" height="40" as="geometry" />
        </mxCell>
        <mxCell id="0hVIUddKuyC8SR1e_FE4-17" value="n" style="text;strokeColor=none;fillColor=none;html=1;fontSize=15;fontStyle=1;verticalAlign=middle;align=center;fontFamily=Helvetica;fontColor=default;" vertex="1" parent="1">
          <mxGeometry x="520" y="520" width="100" height="50" as="geometry" />
        </mxCell>
        <mxCell id="0hVIUddKuyC8SR1e_FE4-19" style="edgeStyle=none;shape=connector;rounded=0;orthogonalLoop=1;jettySize=auto;html=1;entryX=0.5;entryY=1;entryDx=0;entryDy=0;labelBackgroundColor=default;strokeColor=default;fontFamily=Helvetica;fontSize=15;fontColor=default;endArrow=none;endFill=0;" edge="1" parent="1" source="0hVIUddKuyC8SR1e_FE4-18" target="0hVIUddKuyC8SR1e_FE4-3">
          <mxGeometry relative="1" as="geometry" />
        </mxCell>
        <mxCell id="0hVIUddKuyC8SR1e_FE4-22" style="edgeStyle=none;shape=connector;rounded=0;orthogonalLoop=1;jettySize=auto;html=1;entryX=0.5;entryY=0;entryDx=0;entryDy=0;labelBackgroundColor=default;strokeColor=default;fontFamily=Helvetica;fontSize=15;fontColor=default;endArrow=none;endFill=0;" edge="1" parent="1" source="0hVIUddKuyC8SR1e_FE4-18" target="0hVIUddKuyC8SR1e_FE4-21">
          <mxGeometry relative="1" as="geometry" />
        </mxCell>
        <mxCell id="0hVIUddKuyC8SR1e_FE4-18" value="属于" style="rhombus;whiteSpace=wrap;html=1;" vertex="1" parent="1">
          <mxGeometry x="190" y="670" width="160" height="80" as="geometry" />
        </mxCell>
        <mxCell id="0hVIUddKuyC8SR1e_FE4-20" value="n" style="text;strokeColor=none;fillColor=none;html=1;fontSize=15;fontStyle=1;verticalAlign=middle;align=center;fontFamily=Helvetica;fontColor=default;" vertex="1" parent="1">
          <mxGeometry x="230" y="620" width="100" height="50" as="geometry" />
        </mxCell>
        <mxCell id="0hVIUddKuyC8SR1e_FE4-21" value="社区Community" style="rounded=0;whiteSpace=wrap;html=1;fontFamily=Helvetica;fontSize=11;fontColor=default;" vertex="1" parent="1">
          <mxGeometry x="210" y="820" width="120" height="60" as="geometry" />
        </mxCell>
        <mxCell id="0hVIUddKuyC8SR1e_FE4-23" value="1" style="text;strokeColor=none;fillColor=none;html=1;fontSize=15;fontStyle=1;verticalAlign=middle;align=center;fontFamily=Helvetica;fontColor=default;" vertex="1" parent="1">
          <mxGeometry x="230" y="770" width="100" height="40" as="geometry" />
        </mxCell>
      </root>
    </mxGraphModel>
  </diagram>
</mxfile>
